<?xml version="1.0" encoding="utf-8"?><!-- Uploaded to: SVG Repo, www.svgrepo.com, Generator: SVG Repo Mixer Tools -->
<svg fill="#000000" width="800px" height="800px" viewBox="0 0 24 24" id="stethoscope-2" data-name="Line Color" xmlns="http://www.w3.org/2000/svg" class="icon line-color"><path id="secondary" d="M8,12v4a5,5,0,0,0,5,5h1a5,5,0,0,0,5-5V11" style="fill: none; stroke: rgb(44, 169, 188); stroke-linecap: round; stroke-linejoin: round; stroke-width: 2;"></path><circle id="primary" cx="19" cy="9" r="2" style="fill: none; stroke: rgb(0, 0, 0); stroke-linecap: round; stroke-linejoin: round; stroke-width: 2;"></circle><path id="primary-2" data-name="primary" d="M11,3h1a1,1,0,0,1,1,1.11L12.55,8A4.54,4.54,0,0,1,8,12H8A4.54,4.54,0,0,1,3.45,8L3,4.11A1,1,0,0,1,4,3H5" style="fill: none; stroke: rgb(0, 0, 0); stroke-linecap: round; stroke-linejoin: round; stroke-width: 2;"></path></svg>